{"title":"Killing Season WebRip XVID.flv","uid":8679256,"size":407141066,"categoryP":"video","categoryS":"movies","magnet":"?xt=urn:btih:33144726d2e980c40bbfd25b1bfbb3e71c0d8f75&amp;dn=Killing+Season+WebRip+XVID.flv&amp;tr=udp%3A%2F%2Ftracker.openbittorrent.com%3A80&amp;tr=udp%3A%2F%2Fopen.demonii.com%3A1337&amp;tr=udp%3A%2F%2Ftracker.coppersurfer.tk%3A6969&amp;tr=udp%3A%2F%2Fexodus.desync.com%3A6969","seeders":1,"leechers":0,"uploader":"globeplus","files":-1,"time":1373661593,"description":"Plot\n\nAmerican military veteran, and former NATO operative, Colonel Benjamin Ford (Robert De Niro) has fled to a cabin retreat somewhere in the Appalachian Mountains, to forget the painful memories of the Bosnian War he fought in. Former Serbian solider Emil Kovac (John Travolta), intent on revenge against Ford for his actions during the war, poses off as a European tourist visiting Tennessee and gets the opportunity to repair Ford's broken jeep. From there, the two men stroke a friendly acquaintance. When Kovac reveals his true identity, after attacking Ford during a game hunting session, they become deadly enemies and what follows is a gory game of cat-and-mouse.\n\nKilling Season WebRip XVID.flv\n\nGeneral\n\nFormat                                   : Flash Video\nFile size                                : 388 MiB\nDuration                                 : 1h 30mn\nOverall bit rate                         : 598 Kbps\nTagging application                      : Yet Another Metadata Injector for FLV - Version 1.9\n\nVideo\n\nFormat                                   : AVC\nFormat/Info                              : Advanced Video Codec\nFormat profile                           : &lt;a class=&quot;__cf_email__&quot; href=&quot;/cdn-cgi/l/email-protection&quot; data-cfemail=&quot;7c34151b143c304e524d&quot;&gt;[email&amp;#160;protected]&lt;/a&gt;&lt;script cf-hash='f9e31' type=&quot;text/javascript&quot;&gt;\n/* &lt;![CDATA[ */!function(){try{var t=&quot;currentScript&quot;in document?document.currentScript:function(){for(var t=document.getElementsByTagName(&quot;script&quot;),e=t.length;e--;)if(t[e].getAttribute(&quot;cf-hash&quot;))return t[e]}();if(t&amp;&amp;t.previousSibling){var e,r,n,i,c=t.previousSibling,a=c.getAttribute(&quot;data-cfemail&quot;);if(a){for(e=&quot;&quot;,r=parseInt(a.substr(0,2),16),n=2;a.length-n;n+=2)i=parseInt(a.substr(n,2),16)^r,e+=String.fromCharCode(i);e=document.createTextNode(e),c.parentNode.replaceChild(e,c)}}}catch(u){}}();/* ]]&gt; */&lt;/script&gt;\nFormat settings, CABAC                   : Yes\nFormat settings, ReFrames                : 4 frames\nCodec ID                                 : 7\nDuration                                 : 1h 30mn\nBit rate                                 : 466 Kbps\nNominal bit rate                         : 500 Kbps\nWidth                                    : 640 pixels\nHeight                                   : 272 pixels\nDisplay aspect ratio                     : 2.35:1\nFrame rate mode                          : Constant\nFrame rate                               : 23.976 fps\nColor space                              : YUV\nChroma subsampling                       : 4:2:0\nBit depth                                : 8 bits\nScan type                                : Progressive\nBits/(Pixel*Frame)                       : 0.112\nStream size                              : 311 MiB (80%)\nWriting library                          : x264 core 118\n\n\nAudio\n\nFormat                                   : AAC\nFormat/Info                              : Advanced Audio Codec\nFormat profile                           : LC\nCodec ID                                 : 10\nDuration                                 : 1h 30mn\nBit rate                                 : 110 Kbps\nChannel(s)                               : 2 channels\nChannel positions                        : Front: L R\nSampling rate                            : 44.1 KHz\nCompression mode                         : Lossy\nDelay relative to video                  : 42ms\nStream size                              : 75.6 MiB (19%)\n\n\n\n\n* enjoy ...","torrent":{"xt":"urn:btih:33144726d2e980c40bbfd25b1bfbb3e71c0d8f75","amp;dn":"Killing+Season+WebRip+XVID.flv","amp;tr":["udp%3A%2F%2Ftracker.openbittorrent.com%3A80","udp%3A%2F%2Fopen.demonii.com%3A1337","udp%3A%2F%2Ftracker.coppersurfer.tk%3A6969","udp%3A%2F%2Fexodus.desync.com%3A6969"],"infoHash":"33144726d2e980c40bbfd25b1bfbb3e71c0d8f75","infoHashBuffer":{"type":"Buffer","data":[51,20,71,38,210,233,128,196,11,191,210,91,27,251,179,231,28,13,143,117]},"announce":[],"urlList":[]}}